<?xml version="1.0" encoding="utf-8"?>
<!-- Generator: Adobe Illustrator 19.1.0, SVG Export Plug-In . SVG Version: 6.00 Build 0)  -->
<svg version="1.1" id="Layer_1" xmlns="http://www.w3.org/2000/svg" xmlns:xlink="http://www.w3.org/1999/xlink" x="0px" y="0px"
	 viewBox="0 0 300 300" style="enable-background:new 0 0 300 300;" xml:space="preserve">
<style type="text/css">
	.st0{fill:#262A33;}
	.st1{fill:none;stroke:#BC803B;stroke-width:11;stroke-miterlimit:10;}
	.st2{fill:#C2833B;}
	.st3{fill:#DEB647;}
	.st4{fill:#C1905B;}
</style>
<rect x="-38" y="-32" class="st0" width="358" height="366"/>
<ellipse transform="matrix(-0.766 -0.6428 0.6428 -0.766 301.7502 390.8281)" class="st1" cx="222" cy="140.5" rx="26" ry="38.5"/>
<ellipse transform="matrix(0.766 -0.6428 0.6428 0.766 -72.6468 85.4045)" class="st1" cx="81" cy="142.5" rx="26" ry="38.5"/>
<path class="st2" d="M130.6,211.4v3.4c5.4,4.8,8.9,12.1,8.9,20.2c0,5.9-1.8,11.4-4.9,15.8h30.7c-3-4.4-4.8-9.8-4.8-15.6
	c0-8.1,3.5-15.4,8.9-20.2v-3.6H130.6z"/>
<path class="st3" d="M70.8,69.9c0.1,82.7,35.2,149.7,78.5,149.7s78.4-67,78.5-149.7H70.8z"/>
<ellipse class="st4" cx="149.4" cy="69.9" rx="78.5" ry="26.4"/>
<ellipse class="st2" cx="149.4" cy="68.4" rx="73.8" ry="21.6"/>
<ellipse class="st2" cx="149.3" cy="259.6" rx="37.8" ry="10.8"/>
<path class="st3" d="M180.6,259.7c-7.9,4.3-24.6,9.7-45.5,6.7c-8.5-1.2-15.6-3.9-21.1-6.6c0,0.2,0.1,0.5,0.2,0.7
	c6.8,3.5,15.1,6.2,24.3,7.7c22.2,3.6,41.7-1.4,47.1-11.3C183.9,257.1,182.3,259.4,180.6,259.7z"/>
<polygon class="st2" points="165.7,161.8 149.5,152.5 133.5,162.2 136.3,142 123.2,127.9 141.1,124.7 149,106.3 157.2,124.5 
	175.2,127.2 162.4,141.7 "/>
</svg>
