<?xml version="1.0" encoding="utf-8"?>
<!-- Generator: Adobe Illustrator 19.1.0, SVG Export Plug-In . SVG Version: 6.00 Build 0)  -->
<svg version="1.1" id="Layer_2" xmlns="http://www.w3.org/2000/svg" xmlns:xlink="http://www.w3.org/1999/xlink" x="0px" y="0px"
	 viewBox="0 0 300 300" style="enable-background:new 0 0 300 300;" xml:space="preserve">
<style type="text/css">
	.st0{fill:#262B34;}
	.st1{fill:#7F7E7D;}
	.st2{fill:#B58A35;}
	.st3{fill:#9B7532;}
	.st4{fill:#89662F;}
	.st5{fill:#565655;}
	.st6{fill:#DD0730;}
	.st7{fill:#707070;}
	.st8{fill:#666666;}
</style>
<rect x="-35" y="-6.5" class="st0" width="368" height="430.7"/>
<path class="st1" d="M100.3,242.9h-35c-6.6,0-12-5.4-12-12v-34.3c0-6.6,5.4-12,12-12h35c6.6,0,12,5.4,12,12v34.3
	C112.3,237.5,106.9,242.9,100.3,242.9z"/>
<path class="st2" d="M71.4,192.9c2.7,2.7,4.2,6.2,4.6,9.7c4,0.1,7.9,1.7,10.9,4.7c3.7,3.7,5.2,8.7,4.6,13.6c4.1,0,8.2,1.6,11.3,4.7
	c4.2,4.2,5.6,10.1,4.2,15.5L236.3,112c4.7-4.7,4.7-12.3,0-17l-34.1-34.1c-4.7-4.7-12.3-4.7-17,0L57.8,188.3
	C62.6,187.7,67.7,189.2,71.4,192.9z"/>
<path class="st3" d="M77.8,202.8c3.4,0.5,6.6,2,9.2,4.5c3.7,3.7,5.2,8.7,4.6,13.6c1,0,2,0.1,2.9,0.3l105.4-105.4l-17.6-17.6
	L77.8,202.8z"/>
<path class="st4" d="M93.3,221.5c3.5,0.4,6.8,1.9,9.4,4.6c4,4,5.4,9.7,4.3,15l107.6-107.6L198,116.8L93.3,221.5z"/>
<path class="st5" d="M72.7,242.8c-0.9-4.6-3.1-9.1-6.7-12.7c-3.8-3.8-8.6-6.1-13.5-6.9v7.6c0,6.6,5.4,12,12,12H72.7z"/>
<path class="st6" d="M236.7,95.2l-34.1-34.1c-4.7-4.7-12.3-4.7-17,0l-6.7,6.7l51.1,51.1l6.7-6.7C241.3,107.6,241.3,99.9,236.7,95.2z
	"/>
<rect x="158.6" y="88.5" transform="matrix(-0.7071 -0.7071 0.7071 -0.7071 259.9278 312.5042)" class="st1" width="72.3" height="27.7"/>
<rect x="182.7" y="89" transform="matrix(-0.7071 -0.7071 0.7071 -0.7071 259.7663 313.2517)" class="st7" width="24.1" height="27.7"/>
<rect x="200.3" y="106.1" transform="matrix(-0.7071 -0.7071 0.7071 -0.7071 277.4593 354.6937)" class="st8" width="23.8" height="27.6"/>
</svg>
