<?xml version="1.0" encoding="utf-8"?>
<!-- Generator: Adobe Illustrator 19.1.0, SVG Export Plug-In . SVG Version: 6.00 Build 0)  -->
<svg version="1.1" id="Layer_1" xmlns="http://www.w3.org/2000/svg" xmlns:xlink="http://www.w3.org/1999/xlink" x="0px" y="0px"
	 viewBox="0 0 300 300" style="enable-background:new 0 0 300 300;" xml:space="preserve">
<style type="text/css">
	.st0{fill:#262A33;}
	.st1{fill:#6D6D6D;}
	.st2{fill:#BCBBBB;}
	.st3{fill:#5287A1;}
</style>
<rect x="-47" y="-48" class="st0" width="361" height="387"/>
<path class="st1" d="M207.5,218.2H38.9c-6.6,0-12-5.4-12-12V91.5c0-6.6,5.4-12,12-12h168.7c6.6,0,12,5.4,12,12v114.7
	C219.5,212.8,214.1,218.2,207.5,218.2z"/>
<path class="st2" d="M269.8,242.8H121.6c-6.6,0-12-5.4-12-12v-99.6c0-6.6,5.4-12,12-12h148.3c6.6,0,12,5.4,12,12v99.6
	C281.8,237.4,276.4,242.8,269.8,242.8z"/>
<polygon class="st2" points="262.2,263.6 241.3,253.1 219.8,242.1 262.2,242.1 "/>
<ellipse class="st3" cx="194.4" cy="184.2" rx="15.7" ry="15.2"/>
<ellipse class="st3" cx="244.6" cy="184.5" rx="15.7" ry="15.2"/>
<ellipse class="st3" cx="142.5" cy="182.9" rx="15.7" ry="15.2"/>
<polygon class="st1" points="60.9,225.6 41,238.1 41,211.9 81.8,211.9 "/>
</svg>
