<?xml version="1.0" encoding="utf-8"?>
<!-- Generator: Adobe Illustrator 19.1.0, SVG Export Plug-In . SVG Version: 6.00 Build 0)  -->
<svg version="1.1" id="Layer_1" xmlns="http://www.w3.org/2000/svg" xmlns:xlink="http://www.w3.org/1999/xlink" x="0px" y="0px"
	 viewBox="0 0 300 300" style="enable-background:new 0 0 300 300;" xml:space="preserve">
<style type="text/css">
	.st0{fill:#262A33;stroke:#000000;stroke-miterlimit:10;}
	.st1{fill:#FBFCFD;}
</style>
<g id="Layer_2">
	<rect x="-5.9" y="-5.3" class="st0" width="323" height="309.6"/>
</g>
<circle class="st1" cx="151" cy="73.1" r="26"/>
<path class="st1" d="M205.7,198v-73.6c0-8.7-5.4-15.9-12-15.9H107c-6.6,0-12,7.2-12,15.9V198H205.7z"/>
<rect x="126" y="184" class="st1" width="50.8" height="81.8"/>
<circle class="st1" cx="64.5" cy="96.2" r="17.5"/>
<path class="st1" d="M82.7,194.9v-66.4c0-2.2,0.6-4.3,1.7-6.1H43.5c-6.7,0-12.2,6.5-12.2,14.4v59.2c0,0.3,0,0.6,0,0.9h51.5
	C82.8,196.3,82.7,195.6,82.7,194.9z"/>
<path class="st1" d="M94.5,205c-6.6,0-12-5-12-11.2v-5.5H52.2v67.6h43.9V205H94.5z"/>
<circle class="st1" cx="233.9" cy="97.2" r="17.5"/>
<path class="st1" d="M215.7,195.9v-66.4c0-2.2-0.6-4.3-1.7-6.1h40.9c6.7,0,12.2,6.5,12.2,14.4v59.2c0,0.3,0,0.6,0,0.9h-51.5
	C215.7,197.3,215.7,196.6,215.7,195.9z"/>
<path class="st1" d="M203.9,205.9c6.6,0,12-5,12-11.1v-5.5h30.3v67.1h-43.9v-50.5H203.9z"/>
</svg>
