<?xml version="1.0" encoding="utf-8"?>
<!-- Generator: Adobe Illustrator 19.1.0, SVG Export Plug-In . SVG Version: 6.00 Build 0)  -->
<svg version="1.1" id="Layer_1" xmlns="http://www.w3.org/2000/svg" xmlns:xlink="http://www.w3.org/1999/xlink" x="0px" y="0px"
	 viewBox="0 0 300 300" style="enable-background:new 0 0 300 300;" xml:space="preserve">
<style type="text/css">
	.st0{fill:#262A33;}
	.st1{fill:none;stroke:#F9F7F7;stroke-width:6;stroke-miterlimit:10;}
	.st2{fill:#CF1330;}
	.st3{fill:#B08736;}
	.st4{fill:#51829B;}
</style>
<rect x="-18" y="-57" class="st0" width="348" height="412"/>
<circle class="st1" cx="145.6" cy="144.8" r="90"/>
<line class="st1" x1="87.5" y1="74.7" x2="200.6" y2="220.3"/>
<line class="st1" x1="81.8" y1="214.5" x2="208.5" y2="76.8"/>
<line class="st1" x1="55.6" y1="152.4" x2="235.7" y2="152.4"/>
<line class="st1" x1="145.1" y1="55.9" x2="145.1" y2="234.4"/>
<path class="st1" d="M55.6,150.1c0-17.7,40.7-31.9,91.1-31.9"/>
<path class="st1" d="M231.9,150.1c0-17.9-39.1-32.5-87.4-32.5"/>
<path class="st1" d="M59.3,152.9c0,17.9,39.1,32.5,87.4,32.5"/>
<path class="st1" d="M233.1,151.9c0,17.9-39.1,32.5-87.4,32.5"/>
<path class="st1" d="M144.8,57.4c-17.8,0-32.2,41.7-32.2,93.3"/>
<path class="st1" d="M143.6,58.4c17.8,0,32.2,41.7,32.2,93.3"/>
<path class="st1" d="M143.6,234.6c17.8,0,32.2-41.7,32.2-93.3"/>
<path class="st1" d="M144.8,234.6c-17.8,0-32.2-41.7-32.2-93.3"/>
<circle class="st2" cx="144.1" cy="56.4" r="8.9"/>
<circle class="st2" cx="145.8" cy="233.6" r="8.9"/>
<circle class="st3" cx="55.6" cy="152.2" r="8.9"/>
<circle class="st3" cx="233.8" cy="153.3" r="8.9"/>
<circle class="st4" cx="88.9" cy="75.4" r="8.9"/>
<circle class="st4" cx="200.1" cy="217.7" r="8.9"/>
<circle class="st4" cx="84.9" cy="210.8" r="8.9"/>
<circle class="st4" cx="206" cy="78.4" r="8.9"/>
</svg>
